# Blender v2.78 (sub 0) OBJ File: 'NewGaurage.blend'
# www.blender.org
mtllib Inner_Gaurage_Light_Middle.mtl
o Cube.006
v -1.577477 3.198369 -39.687534
v -1.577477 3.274400 -39.687534
v -1.577477 3.198369 -40.404957
v -1.577477 3.274400 -40.404957
v -1.628704 3.198369 -39.687534
v -1.628704 3.274400 -39.687534
v -1.628704 3.198369 -40.404957
v -1.628704 3.274400 -40.404957
v -1.628704 3.198369 -44.123791
v -1.628704 3.274400 -44.123791
v -1.628704 3.198369 -44.841213
v -1.628704 3.274400 -44.841213
v -1.679932 3.198369 -44.123791
v -1.679932 3.274400 -44.123791
v -1.679932 3.198369 -44.841213
v -1.679932 3.274400 -44.841213
v -1.679932 3.198369 -48.560040
v -1.679932 3.274400 -48.560040
v -1.679932 3.198369 -49.277470
v -1.679932 3.274400 -49.277470
v -1.731159 3.198369 -48.560040
v -1.731159 3.274400 -48.560040
v -1.731159 3.198369 -49.277470
v -1.731159 3.274400 -49.277470
v -1.731159 3.198369 -52.996296
v -1.731159 3.274400 -52.996296
v -1.731159 3.198369 -53.713718
v -1.731159 3.274400 -53.713718
v -1.782387 3.198369 -52.996296
v -1.782387 3.274400 -52.996296
v -1.782387 3.198369 -53.713718
v -1.782387 3.274400 -53.713718
v 1.736352 3.198369 -39.687534
v 1.736352 3.274400 -39.687534
v 1.736352 3.198369 -40.404957
v 1.736352 3.274400 -40.404957
v 1.685124 3.198369 -39.687534
v 1.685124 3.274400 -39.687534
v 1.685124 3.198369 -40.404957
v 1.685124 3.274400 -40.404957
v 1.685124 3.198369 -44.123791
v 1.685124 3.274400 -44.123791
v 1.685124 3.198369 -44.841213
v 1.685124 3.274400 -44.841213
v 1.633897 3.198369 -44.123791
v 1.633897 3.274400 -44.123791
v 1.633897 3.198369 -44.841213
v 1.633897 3.274400 -44.841213
v 1.633897 3.198369 -48.560040
v 1.633897 3.274400 -48.560040
v 1.633897 3.198369 -49.277470
v 1.633897 3.274400 -49.277470
v 1.582669 3.198369 -48.560040
v 1.582669 3.274400 -48.560040
v 1.582669 3.198369 -49.277470
v 1.582669 3.274400 -49.277470
v 1.582669 3.198369 -52.996296
v 1.582669 3.274400 -52.996296
v 1.582669 3.198369 -53.713718
v 1.582669 3.274400 -53.713718
v 1.531442 3.198369 -52.996296
v 1.531442 3.274400 -52.996296
v 1.531442 3.198369 -53.713718
v 1.531442 3.274400 -53.713718
vt 1.0000 0.0000
vt 0.0000 1.0000
vt 0.0000 0.0000
vt 1.0000 0.0000
vt 0.0000 1.0000
vt 0.0000 0.0000
vt 1.0000 0.0000
vt 0.0000 1.0000
vt 0.0000 0.0000
vt 1.0000 0.0000
vt 0.0000 0.0000
vt 1.0000 0.0000
vt 0.0000 1.0000
vt 0.0000 0.0000
vt 1.0000 0.0000
vt 0.0000 1.0000
vt 0.0000 0.0000
vt 1.0000 0.0000
vt 0.0000 1.0000
vt 0.0000 0.0000
vt 1.0000 0.0000
vt 0.0000 1.0000
vt 0.0000 0.0000
vt 1.0000 0.0000
vt 0.0000 0.0000
vt 1.0000 0.0000
vt 0.0000 1.0000
vt 0.0000 0.0000
vt 1.0000 0.0000
vt 0.0000 1.0000
vt 0.0000 0.0000
vt 1.0000 0.0000
vt 0.0000 1.0000
vt 0.0000 0.0000
vt 1.0000 0.0000
vt 0.0000 1.0000
vt 0.0000 0.0000
vt 1.0000 0.0000
vt 0.0000 0.0000
vt 1.0000 0.0000
vt 0.0000 1.0000
vt 0.0000 0.0000
vt 1.0000 0.0000
vt 0.0000 1.0000
vt 0.0000 0.0000
vt 1.0000 0.0000
vt 0.0000 1.0000
vt 0.0000 0.0000
vt 1.0000 0.0000
vt 0.0000 1.0000
vt 0.0000 0.0000
vt 1.0000 0.0000
vt 0.0000 0.0000
vt 1.0000 0.0000
vt 0.0000 1.0000
vt 0.0000 0.0000
vt 1.0000 0.0000
vt 0.0000 1.0000
vt 0.0000 0.0000
vt 1.0000 0.0000
vt 0.0000 1.0000
vt 0.0000 0.0000
vt 1.0000 0.0000
vt 0.0000 1.0000
vt 0.0000 0.0000
vt 1.0000 0.0000
vt 0.0000 0.0000
vt 1.0000 0.0000
vt 0.0000 1.0000
vt 0.0000 0.0000
vt 1.0000 0.0000
vt 0.0000 1.0000
vt 0.0000 0.0000
vt 1.0000 0.0000
vt 0.0000 1.0000
vt 0.0000 0.0000
vt 1.0000 0.0000
vt 0.0000 1.0000
vt 0.0000 0.0000
vt 1.0000 0.0000
vt 0.0000 0.0000
vt 1.0000 0.0000
vt 0.0000 1.0000
vt 0.0000 0.0000
vt 1.0000 0.0000
vt 0.0000 1.0000
vt 0.0000 0.0000
vt 1.0000 0.0000
vt 0.0000 1.0000
vt 0.0000 0.0000
vt 1.0000 0.0000
vt 0.0000 1.0000
vt 0.0000 0.0000
vt 1.0000 0.0000
vt 0.0000 0.0000
vt 1.0000 0.0000
vt 0.0000 1.0000
vt 0.0000 0.0000
vt 1.0000 0.0000
vt 0.0000 1.0000
vt 0.0000 0.0000
vt 1.0000 0.0000
vt 0.0000 1.0000
vt 0.0000 0.0000
vt 1.0000 0.0000
vt 0.0000 1.0000
vt 0.0000 0.0000
vt 1.0000 0.0000
vt 0.0000 0.0000
vt 1.0000 0.0000
vt 0.0000 1.0000
vt 0.0000 0.0000
vt 1.0000 1.0000
vt 1.0000 1.0000
vt 1.0000 1.0000
vt 1.0000 1.0000
vt 1.0000 1.0000
vt 1.0000 1.0000
vt 1.0000 1.0000
vt 1.0000 1.0000
vt 1.0000 1.0000
vt 1.0000 1.0000
vt 1.0000 1.0000
vt 1.0000 1.0000
vt 1.0000 1.0000
vt 1.0000 1.0000
vt 1.0000 1.0000
vt 1.0000 1.0000
vt 1.0000 1.0000
vt 1.0000 1.0000
vt 1.0000 1.0000
vt 1.0000 1.0000
vt 1.0000 1.0000
vt 1.0000 1.0000
vt 1.0000 1.0000
vt 1.0000 1.0000
vt 1.0000 1.0000
vt 1.0000 1.0000
vt 1.0000 1.0000
vt 1.0000 1.0000
vt 1.0000 1.0000
vt 1.0000 1.0000
vt 1.0000 1.0000
vt 1.0000 1.0000
vn -1.0000 0.0000 0.0000
vn -1.0000 0.0000 0.0000
vn -1.0000 0.0000 0.0000
vn 1.0000 0.0000 0.0000
vn 1.0000 0.0000 0.0000
vn 1.0000 0.0000 0.0000
vn 0.0000 0.0000 -1.0000
vn 0.0000 0.0000 -1.0000
vn 0.0000 0.0000 -1.0000
vn 0.0000 1.0000 0.0000
vn 0.0000 1.0000 0.0000
vn 0.0000 1.0000 0.0000
vn 0.0000 -1.0000 0.0000
vn 0.0000 -1.0000 0.0000
vn 0.0000 -1.0000 0.0000
vn -1.0000 0.0000 0.0000
vn -1.0000 0.0000 0.0000
vn -1.0000 0.0000 0.0000
vn 1.0000 0.0000 0.0000
vn 1.0000 0.0000 0.0000
vn 1.0000 0.0000 0.0000
vn 0.0000 0.0000 -1.0000
vn 0.0000 0.0000 -1.0000
vn 0.0000 0.0000 -1.0000
vn 0.0000 1.0000 0.0000
vn 0.0000 1.0000 0.0000
vn 0.0000 1.0000 0.0000
vn 0.0000 -1.0000 0.0000
vn 0.0000 -1.0000 0.0000
vn 0.0000 -1.0000 0.0000
vn -1.0000 0.0000 0.0000
vn -1.0000 0.0000 0.0000
vn -1.0000 0.0000 0.0000
vn 1.0000 0.0000 0.0000
vn 1.0000 0.0000 0.0000
vn 1.0000 0.0000 0.0000
vn 0.0000 0.0000 -1.0000
vn 0.0000 0.0000 -1.0000
vn 0.0000 0.0000 -1.0000
vn 0.0000 1.0000 0.0000
vn 0.0000 1.0000 0.0000
vn 0.0000 1.0000 0.0000
vn 0.0000 -1.0000 0.0000
vn 0.0000 -1.0000 0.0000
vn 0.0000 -1.0000 0.0000
vn -1.0000 0.0000 0.0000
vn -1.0000 0.0000 0.0000
vn -1.0000 0.0000 0.0000
vn 1.0000 0.0000 0.0000
vn 1.0000 0.0000 0.0000
vn 1.0000 0.0000 0.0000
vn 0.0000 0.0000 -1.0000
vn 0.0000 0.0000 -1.0000
vn 0.0000 0.0000 -1.0000
vn 0.0000 1.0000 0.0000
vn 0.0000 1.0000 0.0000
vn 0.0000 1.0000 0.0000
vn 0.0000 -1.0000 0.0000
vn 0.0000 -1.0000 0.0000
vn 0.0000 -1.0000 0.0000
vn -1.0000 0.0000 0.0000
vn -1.0000 0.0000 0.0000
vn -1.0000 0.0000 0.0000
vn 1.0000 0.0000 0.0000
vn 1.0000 0.0000 0.0000
vn 1.0000 0.0000 0.0000
vn 0.0000 0.0000 -1.0000
vn 0.0000 0.0000 -1.0000
vn 0.0000 0.0000 -1.0000
vn 0.0000 1.0000 0.0000
vn 0.0000 1.0000 0.0000
vn 0.0000 1.0000 0.0000
vn 0.0000 -1.0000 0.0000
vn 0.0000 -1.0000 0.0000
vn 0.0000 -1.0000 0.0000
vn -1.0000 0.0000 0.0000
vn -1.0000 0.0000 0.0000
vn -1.0000 0.0000 0.0000
vn 1.0000 0.0000 0.0000
vn 1.0000 0.0000 0.0000
vn 1.0000 0.0000 0.0000
vn 0.0000 0.0000 -1.0000
vn 0.0000 0.0000 -1.0000
vn 0.0000 0.0000 -1.0000
vn 0.0000 1.0000 0.0000
vn 0.0000 1.0000 0.0000
vn 0.0000 1.0000 0.0000
vn 0.0000 -1.0000 0.0000
vn 0.0000 -1.0000 0.0000
vn 0.0000 -1.0000 0.0000
vn -1.0000 0.0000 0.0000
vn -1.0000 0.0000 0.0000
vn -1.0000 0.0000 0.0000
vn 1.0000 0.0000 0.0000
vn 1.0000 0.0000 0.0000
vn 1.0000 0.0000 0.0000
vn 0.0000 0.0000 -1.0000
vn 0.0000 0.0000 -1.0000
vn 0.0000 0.0000 -1.0000
vn 0.0000 1.0000 0.0000
vn 0.0000 1.0000 0.0000
vn 0.0000 1.0000 0.0000
vn 0.0000 -1.0000 0.0000
vn 0.0000 -1.0000 0.0000
vn 0.0000 -1.0000 0.0000
vn -1.0000 0.0000 0.0000
vn -1.0000 0.0000 0.0000
vn -1.0000 0.0000 0.0000
vn 1.0000 0.0000 0.0000
vn 1.0000 0.0000 0.0000
vn 1.0000 0.0000 0.0000
vn 0.0000 0.0000 -1.0000
vn 0.0000 0.0000 -1.0000
vn 0.0000 0.0000 -1.0000
vn 0.0000 1.0000 0.0000
vn 0.0000 1.0000 0.0000
vn 0.0000 1.0000 0.0000
vn 0.0000 -1.0000 0.0000
vn 0.0000 -1.0000 0.0000
vn 0.0000 -1.0000 0.0000
vn -1.0000 0.0000 0.0000
vn -1.0000 0.0000 0.0000
vn -1.0000 0.0000 0.0000
vn 1.0000 0.0000 0.0000
vn 1.0000 0.0000 0.0000
vn 1.0000 0.0000 0.0000
vn 0.0000 0.0000 -1.0000
vn 0.0000 0.0000 -1.0000
vn 0.0000 0.0000 -1.0000
vn 0.0000 1.0000 0.0000
vn 0.0000 1.0000 0.0000
vn 0.0000 1.0000 0.0000
vn 0.0000 -1.0000 0.0000
vn 0.0000 -1.0000 0.0000
vn 0.0000 -1.0000 0.0000
vn -1.0000 0.0000 0.0000
vn -1.0000 0.0000 0.0000
vn -1.0000 0.0000 0.0000
vn 1.0000 0.0000 0.0000
vn 1.0000 0.0000 0.0000
vn 1.0000 0.0000 0.0000
vn 0.0000 0.0000 -1.0000
vn 0.0000 0.0000 -1.0000
vn 0.0000 0.0000 -1.0000
vn 0.0000 1.0000 0.0000
vn 0.0000 1.0000 0.0000
vn 0.0000 1.0000 0.0000
vn 0.0000 -1.0000 0.0000
vn 0.0000 -1.0000 0.0000
vn 0.0000 -1.0000 0.0000
vn -1.0000 0.0000 0.0000
vn -1.0000 0.0000 0.0000
vn -1.0000 0.0000 0.0000
vn 1.0000 0.0000 0.0000
vn 1.0000 0.0000 0.0000
vn 1.0000 0.0000 0.0000
vn 0.0000 0.0000 -1.0000
vn 0.0000 0.0000 -1.0000
vn 0.0000 0.0000 -1.0000
vn 0.0000 1.0000 0.0000
vn 0.0000 1.0000 0.0000
vn 0.0000 1.0000 0.0000
vn 0.0000 -1.0000 0.0000
vn 0.0000 -1.0000 0.0000
vn 0.0000 -1.0000 0.0000
vn -1.0000 0.0000 0.0000
vn -1.0000 0.0000 0.0000
vn -1.0000 0.0000 0.0000
vn 1.0000 0.0000 0.0000
vn 1.0000 0.0000 0.0000
vn 1.0000 0.0000 0.0000
vn 0.0000 0.0000 -1.0000
vn 0.0000 0.0000 -1.0000
vn 0.0000 0.0000 -1.0000
vn 0.0000 1.0000 0.0000
vn 0.0000 1.0000 0.0000
vn 0.0000 1.0000 0.0000
vn 0.0000 -1.0000 0.0000
vn 0.0000 -1.0000 0.0000
vn 0.0000 -1.0000 0.0000
vn -1.0000 0.0000 0.0000
vn -1.0000 0.0000 0.0000
vn -1.0000 0.0000 0.0000
vn 1.0000 0.0000 0.0000
vn 1.0000 0.0000 0.0000
vn 1.0000 0.0000 0.0000
vn 0.0000 0.0000 -1.0000
vn 0.0000 0.0000 -1.0000
vn 0.0000 0.0000 -1.0000
vn 0.0000 1.0000 0.0000
vn 0.0000 1.0000 0.0000
vn 0.0000 1.0000 0.0000
vn 0.0000 -1.0000 0.0000
vn 0.0000 -1.0000 0.0000
vn 0.0000 -1.0000 0.0000
vn -1.0000 0.0000 0.0000
vn -1.0000 0.0000 0.0000
vn -1.0000 0.0000 0.0000
vn 1.0000 0.0000 0.0000
vn 1.0000 0.0000 0.0000
vn 1.0000 0.0000 0.0000
vn 0.0000 0.0000 -1.0000
vn 0.0000 0.0000 -1.0000
vn 0.0000 0.0000 -1.0000
vn 0.0000 1.0000 0.0000
vn 0.0000 1.0000 0.0000
vn 0.0000 1.0000 0.0000
vn 0.0000 -1.0000 0.0000
vn 0.0000 -1.0000 0.0000
vn 0.0000 -1.0000 0.0000
vn -1.0000 0.0000 0.0000
vn -1.0000 0.0000 0.0000
vn -1.0000 0.0000 0.0000
vn 1.0000 0.0000 0.0000
vn 1.0000 0.0000 0.0000
vn 1.0000 0.0000 0.0000
vn 0.0000 0.0000 -1.0000
vn 0.0000 0.0000 -1.0000
vn 0.0000 0.0000 -1.0000
vn 0.0000 1.0000 0.0000
vn 0.0000 1.0000 0.0000
vn 0.0000 1.0000 0.0000
vn 0.0000 -1.0000 0.0000
vn 0.0000 -1.0000 0.0000
vn 0.0000 -1.0000 0.0000
vn -1.0000 0.0000 0.0000
vn -1.0000 0.0000 0.0000
vn -1.0000 0.0000 0.0000
vn 1.0000 0.0000 0.0000
vn 1.0000 0.0000 0.0000
vn 1.0000 0.0000 0.0000
vn 0.0000 0.0000 -1.0000
vn 0.0000 0.0000 -1.0000
vn 0.0000 0.0000 -1.0000
vn 0.0000 1.0000 0.0000
vn 0.0000 1.0000 0.0000
vn 0.0000 1.0000 0.0000
vn 0.0000 -1.0000 0.0000
vn 0.0000 -1.0000 0.0000
vn 0.0000 -1.0000 0.0000
usemtl None
s off
f 2/1/1 3/2/2 1/3/3
f 8/4/4 5/5/5 7/6/6
f 6/7/7 1/8/8 5/9/9
f 7/10/10 1/8/11 3/11/12
f 4/12/13 6/13/14 8/14/15
f 10/15/16 11/16/17 9/17/18
f 16/18/19 13/19/20 15/20/21
f 14/21/22 9/22/23 13/23/24
f 15/24/25 9/22/26 11/25/27
f 12/26/28 14/27/29 16/28/30
f 18/29/31 19/30/32 17/31/33
f 24/32/34 21/33/35 23/34/36
f 22/35/37 17/36/38 21/37/39
f 23/38/40 17/36/41 19/39/42
f 20/40/43 22/41/44 24/42/45
f 26/43/46 27/44/47 25/45/48
f 32/46/49 29/47/50 31/48/51
f 30/49/52 25/50/53 29/51/54
f 31/52/55 25/50/56 27/53/57
f 28/54/58 30/55/59 32/56/60
f 34/57/61 35/58/62 33/59/63
f 40/60/64 37/61/65 39/62/66
f 38/63/67 33/64/68 37/65/69
f 39/66/70 33/64/71 35/67/72
f 36/68/73 38/69/74 40/70/75
f 42/71/76 43/72/77 41/73/78
f 48/74/79 45/75/80 47/76/81
f 46/77/82 41/78/83 45/79/84
f 47/80/85 41/78/86 43/81/87
f 44/82/88 46/83/89 48/84/90
f 50/85/91 51/86/92 49/87/93
f 56/88/94 53/89/95 55/90/96
f 54/91/97 49/92/98 53/93/99
f 55/94/100 49/92/101 51/95/102
f 52/96/103 54/97/104 56/98/105
f 58/99/106 59/100/107 57/101/108
f 64/102/109 61/103/110 63/104/111
f 62/105/112 57/106/113 61/107/114
f 63/108/115 57/106/116 59/109/117
f 60/110/118 62/111/119 64/112/120
f 2/1/121 4/113/122 3/2/123
f 8/4/124 6/114/125 5/5/126
f 6/7/127 2/115/128 1/8/129
f 7/10/130 5/116/131 1/8/132
f 4/12/133 2/115/134 6/13/135
f 10/15/136 12/117/137 11/16/138
f 16/18/139 14/118/140 13/19/141
f 14/21/142 10/119/143 9/22/144
f 15/24/145 13/120/146 9/22/147
f 12/26/148 10/119/149 14/27/150
f 18/29/151 20/121/152 19/30/153
f 24/32/154 22/122/155 21/33/156
f 22/35/157 18/123/158 17/36/159
f 23/38/160 21/124/161 17/36/162
f 20/40/163 18/123/164 22/41/165
f 26/43/166 28/125/167 27/44/168
f 32/46/169 30/126/170 29/47/171
f 30/49/172 26/127/173 25/50/174
f 31/52/175 29/128/176 25/50/177
f 28/54/178 26/127/179 30/55/180
f 34/57/181 36/129/182 35/58/183
f 40/60/184 38/130/185 37/61/186
f 38/63/187 34/131/188 33/64/189
f 39/66/190 37/132/191 33/64/192
f 36/68/193 34/131/194 38/69/195
f 42/71/196 44/133/197 43/72/198
f 48/74/199 46/134/200 45/75/201
f 46/77/202 42/135/203 41/78/204
f 47/80/205 45/136/206 41/78/207
f 44/82/208 42/135/209 46/83/210
f 50/85/211 52/137/212 51/86/213
f 56/88/214 54/138/215 53/89/216
f 54/91/217 50/139/218 49/92/219
f 55/94/220 53/140/221 49/92/222
f 52/96/223 50/139/224 54/97/225
f 58/99/226 60/141/227 59/100/228
f 64/102/229 62/142/230 61/103/231
f 62/105/232 58/143/233 57/106/234
f 63/108/235 61/144/236 57/106/237
f 60/110/238 58/143/239 62/111/240
