# Blender v2.78 (sub 0) OBJ File: ''
# www.blender.org
mtllib Right_Door.mtl
o Cylinder.001_Cylinder.002
v 1.912520 2.109930 -36.465324
v 1.912520 1.914400 -36.465324
v 2.096515 1.916518 -36.464878
v 2.096515 2.112049 -36.464878
v 2.078835 2.407700 -36.465324
v 2.078835 2.212168 -36.465324
v 2.262831 2.214287 -36.464878
v 2.262831 2.409817 -36.464878
v 2.262774 2.688926 -36.465324
v 2.262774 2.493395 -36.465324
v 2.446768 2.495513 -36.464878
v 2.446768 2.691044 -36.464878
v 2.473096 2.961881 -36.465324
v 2.473096 2.766350 -36.465324
v 2.657091 2.768469 -36.464878
v 2.657091 2.963999 -36.464878
v 2.473096 2.961881 -36.465324
v 2.473096 2.766350 -36.465324
v 2.657091 2.768469 -36.464878
v 2.657091 2.963999 -36.464878
v 2.256292 2.060280 -36.465324
v 2.256292 1.988820 -36.465324
v 3.767066 1.990939 -36.464878
v 3.767066 2.062398 -36.464878
v 2.473773 2.360414 -36.465324
v 2.473773 2.288953 -36.465324
v 3.777813 2.291072 -36.464878
v 3.777813 2.362531 -36.464878
v 2.663386 2.641609 -36.465324
v 2.663386 2.546210 -36.465324
v 3.786845 2.548329 -36.464878
v 3.777653 2.643719 -36.467552
v 2.879062 2.874928 -36.465324
v 2.879062 2.803468 -36.465324
v 3.643311 2.805585 -36.464878
v 3.541534 2.877046 -36.464878
v 2.256292 2.060280 -36.517830
v 2.256292 1.988820 -36.517830
v 3.767066 1.990939 -36.517380
v 3.767066 2.062398 -36.517380
v 2.473773 2.360414 -36.517830
v 2.473773 2.288953 -36.517830
v 3.777813 2.291072 -36.517380
v 3.777813 2.362531 -36.517380
v 2.663386 2.641609 -36.517830
v 3.777653 2.643719 -36.520054
v 3.786845 2.548329 -36.517380
v 2.663386 2.546210 -36.517830
v 2.879062 2.874928 -36.517830
v 2.879062 2.803468 -36.517830
v 3.643311 2.805585 -36.517380
v 3.541534 2.877046 -36.517380
v 1.912520 2.109930 -36.570324
v 2.096515 2.112049 -36.569874
v 2.096515 1.916518 -36.569874
v 1.912520 1.914400 -36.570324
v 2.078835 2.407700 -36.570324
v 2.262831 2.409817 -36.569874
v 2.262831 2.214287 -36.569874
v 2.078835 2.212168 -36.570324
v 2.262774 2.688926 -36.570324
v 2.446768 2.691044 -36.569874
v 2.446768 2.495513 -36.569874
v 2.262774 2.493395 -36.570324
v 2.473096 2.961881 -36.570324
v 2.657091 2.963999 -36.569874
v 2.657091 2.768469 -36.569874
v 2.473096 2.766350 -36.570324
v -0.799558 1.682597 -36.451748
v 0.785622 1.682598 -36.451748
v 0.785622 1.682598 -36.609249
v -0.799558 1.682597 -36.609249
v -1.385690 0.279965 -36.446461
v -0.588503 1.475991 -36.451748
v -0.588503 1.475991 -36.609249
v -1.385690 0.279965 -36.603962
v 1.688692 3.340314 -36.456104
v 1.688718 3.044314 -36.465782
v 1.688718 3.044314 -36.623283
v 1.688692 3.340314 -36.613605
v 0.934327 1.473690 -36.451748
v 1.977984 3.046432 -36.465324
v 1.977984 3.046432 -36.622826
v 0.934327 1.473690 -36.609249
v 3.393165 3.048551 -36.464878
v 3.926409 2.600628 -36.456127
v 3.926409 2.600628 -36.613632
v 3.393165 3.048551 -36.622379
v 4.220161 3.340314 -36.456127
v 4.239275 -0.022205 -36.447365
v 4.239275 -0.022205 -36.604866
v 4.220161 3.340314 -36.613632
v 3.945524 0.764566 -36.447365
v 3.439312 0.292676 -36.443745
v 3.439312 0.292676 -36.601246
v 3.945524 0.764566 -36.604866
v -1.674039 -0.022205 -36.447365
v -1.674030 0.279965 -36.446461
v -1.674030 0.279965 -36.603962
v -1.674039 -0.022205 -36.604866
v 2.096515 1.916518 -36.464878
v 1.912520 1.914400 -36.465324
vt 0.2254 0.8420
vt 0.2508 0.8153
vt 0.2508 0.8423
vt 0.2761 0.8153
vt 0.2508 0.8420
vt 0.2508 0.8150
vt 0.3776 0.8153
vt 0.3522 0.8420
vt 0.3522 0.8150
vt 0.1747 0.8420
vt 0.2001 0.8153
vt 0.2001 0.8423
vt 0.2001 0.8420
vt 0.2254 0.8153
vt 0.2254 0.8423
vt 0.9931 0.6183
vt 0.9832 0.4101
vt 0.9931 0.4101
vt 0.1111 0.9948
vt 0.1013 0.8151
vt 0.1111 0.8150
vt 0.0914 0.8150
vt 0.0783 0.9686
vt 0.0783 0.8151
vt 0.1526 0.8150
vt 0.1427 0.9064
vt 0.1428 0.8151
vt 0.9734 0.4101
vt 0.9832 0.6183
vt 0.9734 0.6183
vt 0.1013 0.9948
vt 0.0914 0.8151
vt 0.1013 0.8150
vt 0.0651 0.8163
vt 0.0783 0.9699
vt 0.0651 0.9699
vt 0.1427 0.8150
vt 0.1328 0.9064
vt 0.1329 0.8151
vt 0.4682 0.8380
vt 0.4609 0.8282
vt 0.4682 0.8282
vt 0.9928 0.6241
vt 1.0000 0.8323
vt 0.9928 0.8323
vt 0.4609 0.8380
vt 0.4537 0.8282
vt 0.4609 0.8282
vt 0.1256 0.8214
vt 0.1184 0.9806
vt 0.1184 0.8214
vt 0.1675 0.9064
vt 0.1747 0.9203
vt 0.1675 0.9203
vt 0.1675 0.8150
vt 0.1747 0.9063
vt 0.4102 0.8214
vt 0.4029 0.8150
vt 0.4102 0.8150
vt 0.4029 0.9018
vt 0.4029 0.8214
vt 0.4537 0.8150
vt 0.4609 0.8282
vt 0.4537 0.8282
vt 0.1671 0.9325
vt 0.1602 0.8150
vt 0.1675 0.8150
vt 0.1599 0.8214
vt 0.1526 0.8150
vt 0.1599 0.8150
vt 0.1256 0.8150
vt 0.1328 0.9699
vt 0.1256 0.9699
vt 0.1184 0.8150
vt 0.1256 0.8150
vt 0.1184 0.9948
vt 0.1111 0.8150
vt 0.1184 0.8150
vt 0.1602 0.9419
vt 0.1599 0.9324
vt 0.1526 0.9588
vt 0.1526 0.8214
vt 0.3269 0.8153
vt 0.3522 0.8420
vt 0.3269 0.8423
vt 0.3269 0.8420
vt 0.3015 0.8153
vt 0.3269 0.8150
vt 0.4029 0.8420
vt 0.3776 0.8153
vt 0.4029 0.8150
vt 0.3015 0.8420
vt 0.2761 0.8153
vt 0.3015 0.8150
vt 0.1747 0.8423
vt 0.1892 0.8596
vt 0.1747 0.8596
vt 0.3015 0.8423
vt 0.3160 0.8676
vt 0.3015 0.8677
vt 0.4102 0.8150
vt 0.4247 0.8324
vt 0.4102 0.8324
vt 0.4102 0.8516
vt 0.4247 0.8516
vt 0.1892 0.8423
vt 0.2037 0.8692
vt 0.1892 0.8692
vt 0.2181 0.8423
vt 0.2326 0.8692
vt 0.2181 0.8692
vt 0.2471 0.8423
vt 0.2616 0.8676
vt 0.2471 0.8677
vt 0.4392 0.8516
vt 0.4537 0.8324
vt 0.4537 0.8516
vt 0.2037 0.8423
vt 0.2181 0.8692
vt 0.2037 0.8692
vt 0.2616 0.8423
vt 0.2760 0.8676
vt 0.2616 0.8677
vt 0.2326 0.8423
vt 0.2471 0.8692
vt 0.2326 0.8692
vt 0.4247 0.8516
vt 0.4392 0.8324
vt 0.4392 0.8516
vt 0.4392 0.8150
vt 0.4392 0.8324
vt 0.2760 0.8423
vt 0.2905 0.8676
vt 0.2760 0.8677
vt 0.4247 0.8150
vt 0.4247 0.8324
vt 0.1747 0.8788
vt 0.1892 0.8789
vt 0.0217 0.8150
vt 0.0434 0.9823
vt 0.0217 0.9823
vt 0.0000 0.8151
vt 0.0217 0.9862
vt 0.0000 0.9862
vt 0.9708 0.0830
vt 0.9505 0.0568
vt 0.9722 0.0568
vt 0.9269 0.7354
vt 0.9486 0.9602
vt 0.9269 0.9604
vt 0.9951 0.1493
vt 0.9740 0.2452
vt 0.9734 0.1492
vt 0.9722 0.3240
vt 0.9517 0.6241
vt 0.9504 0.3240
vt 0.0651 0.9760
vt 0.0434 0.8150
vt 0.0651 0.8150
vt 0.9274 0.7352
vt 0.9486 0.6650
vt 0.9491 0.7352
vt 0.9493 0.8659
vt 0.9708 0.8243
vt 0.9711 0.8658
vt 0.9274 0.0000
vt 0.9269 0.6650
vt 0.9734 0.6241
vt 0.9517 0.0000
vt 0.9734 0.0000
vt 0.9957 0.2453
vt 0.9742 0.4099
vt 0.9493 0.6241
vt 0.9491 0.8243
vt 0.9711 0.6243
vt 0.9928 0.8189
vt 0.9711 0.8191
vt 0.9959 0.0001
vt 0.9742 0.0000
vt 0.2350 0.3390
vt 0.0000 0.8150
vt 0.0000 0.0000
vt 0.6700 0.6654
vt 0.6984 0.6945
vt 0.5051 0.7753
vt 0.9269 0.0026
vt 0.5719 0.0405
vt 0.4635 0.0000
vt 0.2254 0.8150
vt 0.2761 0.8423
vt 0.3776 0.8423
vt 0.1747 0.8150
vt 0.2001 0.8150
vt 0.9832 0.6183
vt 0.1013 0.9948
vt 0.0914 0.9699
vt 0.1526 0.9204
vt 0.9832 0.4101
vt 0.0914 0.9948
vt 0.0783 0.8150
vt 0.1427 0.9204
vt 0.4609 0.8380
vt 1.0000 0.6241
vt 0.4537 0.8380
vt 0.1256 0.9806
vt 0.1747 0.8150
vt 0.4102 0.9018
vt 0.4609 0.8150
vt 0.1328 0.8150
vt 0.1111 0.9948
vt 0.1675 0.9419
vt 0.1599 0.9588
vt 0.3522 0.8150
vt 0.3015 0.8423
vt 0.3776 0.8423
vt 0.2761 0.8423
vt 0.1892 0.8423
vt 0.3160 0.8423
vt 0.4247 0.8151
vt 0.2037 0.8423
vt 0.2326 0.8423
vt 0.2616 0.8423
vt 0.2181 0.8423
vt 0.2760 0.8423
vt 0.2471 0.8423
vt 0.4537 0.8151
vt 0.2905 0.8423
vt 0.4392 0.8151
vt 0.0434 0.8150
vt 0.0217 0.8150
vt 0.9491 0.0830
vt 0.9486 0.7352
vt 0.0434 0.9760
vt 0.9491 0.0000
vt 0.9959 0.4101
vt 0.9711 0.6241
vt 0.9928 0.6241
vt 0.4227 0.4635
vt 0.4635 0.4635
vt 0.4635 0.8124
vt 0.0416 0.0000
vt 0.2350 0.1205
vt 0.6696 0.4555
vt 0.8864 0.3117
vt 0.8861 0.3515
vt 0.6984 0.4760
vt 0.4635 0.8150
vt 0.5051 0.8150
vt 0.9269 0.3516
vt 0.8867 0.1166
vt 0.5069 0.1103
vt 0.8250 0.0431
vn -0.0025 0.0000 1.0000
vn -0.0025 0.0000 1.0000
vn -0.0025 0.0000 1.0000
vn -0.0025 0.0000 1.0000
vn -0.0025 0.0000 1.0000
vn -0.0025 0.0000 1.0000
vn -0.0025 0.0000 1.0000
vn -0.0025 0.0000 1.0000
vn -0.0025 0.0000 1.0000
vn -0.0025 0.0000 1.0000
vn -0.0025 0.0000 1.0000
vn -0.0025 0.0000 1.0000
vn -0.0025 0.0000 1.0000
vn -0.0025 0.0000 1.0000
vn -0.0025 0.0000 1.0000
vn -0.0003 0.0000 1.0000
vn -0.0003 0.0000 1.0000
vn -0.0003 0.0000 1.0000
vn -0.0003 0.0000 1.0000
vn -0.0003 0.0000 1.0000
vn -0.0003 0.0000 1.0000
vn 0.0020 0.0000 1.0000
vn 0.0020 0.0000 1.0000
vn 0.0020 0.0000 1.0000
vn -0.0007 0.0000 1.0000
vn -0.0007 0.0000 1.0000
vn -0.0007 0.0000 1.0000
vn -0.0003 0.0000 1.0000
vn -0.0003 0.0000 1.0000
vn -0.0003 0.0000 1.0000
vn -0.0003 0.0000 1.0000
vn -0.0003 0.0000 1.0000
vn -0.0003 0.0000 1.0000
vn -0.0020 0.0000 -1.0000
vn -0.0020 0.0000 -1.0000
vn -0.0020 0.0000 -1.0000
vn -0.0007 0.0000 1.0000
vn -0.0007 0.0000 1.0000
vn -0.0007 0.0000 1.0000
vn -1.0000 0.0000 0.0000
vn -1.0000 0.0000 0.0000
vn -1.0000 0.0000 0.0000
vn 0.0014 -1.0000 0.0000
vn 0.0014 -1.0000 0.0000
vn 0.0014 -1.0000 0.0000
vn -1.0000 0.0000 0.0000
vn -1.0000 0.0000 0.0000
vn -1.0000 0.0000 0.0000
vn -0.0014 1.0000 0.0000
vn -0.0014 1.0000 0.0000
vn -0.0014 1.0000 0.0000
vn -0.5746 -0.8184 0.0000
vn -0.5746 -0.8184 0.0000
vn -0.5746 -0.8184 0.0000
vn 0.0032 -1.0000 0.0000
vn 0.0032 -1.0000 0.0000
vn 0.0032 -1.0000 0.0000
vn 1.0000 0.0000 0.0000
vn 1.0000 0.0000 0.0000
vn 1.0000 0.0000 0.0000
vn -0.0028 1.0000 0.0000
vn -0.0028 1.0000 0.0000
vn -0.0028 1.0000 0.0000
vn -1.0000 0.0000 0.0000
vn -1.0000 0.0000 0.0000
vn -1.0000 0.0000 0.0000
vn -0.0019 1.0000 0.0000
vn -0.0019 1.0000 0.0000
vn -0.0019 1.0000 0.0000
vn 1.0000 0.0000 0.0000
vn 1.0000 0.0000 0.0000
vn 1.0000 0.0000 0.0000
vn 0.0019 -1.0000 0.0000
vn 0.0019 -1.0000 0.0000
vn 0.0019 -1.0000 0.0000
vn 1.0000 0.0000 0.0000
vn 1.0000 0.0000 0.0000
vn 1.0000 0.0000 0.0000
vn 0.0016 -1.0000 0.0000
vn 0.0016 -1.0000 0.0000
vn 0.0016 -1.0000 0.0000
vn 0.9954 0.0959 0.0000
vn 0.9954 0.0959 0.0000
vn 0.9954 0.0959 0.0000
vn -0.0016 1.0000 0.0000
vn -0.0016 1.0000 0.0000
vn -0.0016 1.0000 0.0000
vn 0.0024 0.0000 -1.0000
vn 0.0024 0.0000 -1.0000
vn 0.0024 0.0000 -1.0000
vn 0.0024 0.0000 -1.0000
vn 0.0024 0.0000 -1.0000
vn 0.0024 0.0000 -1.0000
vn 0.0024 0.0000 -1.0000
vn 0.0024 0.0000 -1.0000
vn 0.0024 0.0000 -1.0000
vn 0.0024 0.0000 -1.0000
vn 0.0024 0.0000 -1.0000
vn 0.0024 0.0000 -1.0000
vn 1.0000 0.0000 0.0000
vn 1.0000 0.0000 0.0000
vn 1.0000 0.0000 0.0000
vn 0.0115 -0.9999 0.0000
vn 0.0115 -0.9999 0.0000
vn 0.0115 -0.9999 0.0000
vn 1.0000 0.0000 0.0000
vn 1.0000 0.0000 0.0000
vn 1.0000 0.0000 0.0000
vn -0.0115 0.9999 0.0000
vn -0.0115 0.9999 0.0000
vn -0.0115 0.9999 0.0000
vn -1.0000 0.0000 0.0000
vn -1.0000 0.0000 0.0000
vn -1.0000 0.0000 0.0000
vn -1.0000 0.0000 0.0000
vn -1.0000 0.0000 0.0000
vn -1.0000 0.0000 0.0000
vn 0.0115 -0.9999 0.0000
vn 0.0115 -0.9999 0.0000
vn 0.0115 -0.9999 0.0000
vn -0.0115 0.9999 0.0000
vn -0.0115 0.9999 0.0000
vn -0.0115 0.9999 0.0000
vn -1.0000 0.0000 0.0000
vn -1.0000 0.0000 0.0000
vn -1.0000 0.0000 0.0000
vn 0.0115 -0.9999 0.0000
vn 0.0115 -0.9999 0.0000
vn 0.0115 -0.9999 0.0000
vn -1.0000 0.0000 0.0000
vn -1.0000 0.0000 0.0000
vn -1.0000 0.0000 0.0000
vn -0.0115 0.9999 0.0000
vn -0.0115 0.9999 0.0000
vn -0.0115 0.9999 0.0000
vn 1.0000 0.0000 0.0000
vn 1.0000 0.0000 0.0000
vn 1.0000 0.0000 0.0000
vn 0.0115 -0.9999 0.0000
vn 0.0115 -0.9999 0.0000
vn 0.0115 -0.9999 0.0000
vn 1.0000 0.0000 0.0000
vn 1.0000 0.0000 0.0000
vn 1.0000 0.0000 0.0000
vn -0.0115 0.9999 0.0000
vn -0.0115 0.9999 0.0000
vn -0.0115 0.9999 0.0000
vn -0.0000 1.0000 0.0000
vn -0.0000 1.0000 0.0000
vn -0.0000 1.0000 0.0000
vn -0.8321 0.5546 0.0000
vn -0.8321 0.5546 0.0000
vn -0.8321 0.5546 0.0000
vn 1.0000 0.0001 0.0000
vn 1.0000 0.0001 0.0000
vn 1.0000 0.0001 0.0000
vn -0.8332 0.5529 0.0000
vn -0.8332 0.5529 0.0000
vn -0.8332 0.5529 0.0000
vn 0.6432 0.7657 0.0000
vn 0.6432 0.7657 0.0000
vn 0.6432 0.7657 0.0000
vn 1.0000 0.0057 0.0000
vn 1.0000 0.0057 0.0000
vn 1.0000 0.0057 0.0000
vn 0.0015 1.0000 0.0000
vn 0.0015 1.0000 0.0000
vn 0.0015 1.0000 0.0000
vn 0.6819 -0.7315 0.0000
vn 0.6819 -0.7315 0.0000
vn 0.6819 -0.7315 0.0000
vn -1.0000 0.0000 0.0000
vn -1.0000 0.0000 0.0000
vn -1.0000 0.0000 0.0000
vn 0.0026 -1.0000 0.0000
vn 0.0026 -1.0000 0.0000
vn 0.0026 -1.0000 0.0000
vn 0.0000 1.0000 0.0000
vn 0.0000 1.0000 0.0000
vn 0.0000 1.0000 0.0000
vn 0.9999 0.0104 0.0000
vn 0.9999 0.0104 0.0000
vn 0.9999 0.0104 0.0000
vn 0.0000 1.0000 0.0000
vn 0.0000 1.0000 0.0000
vn 0.0000 1.0000 0.0000
vn -0.8486 0.5291 0.0000
vn -0.8486 0.5291 0.0000
vn -0.8486 0.5291 0.0000
vn -0.8334 0.5527 0.0000
vn -0.8334 0.5527 0.0000
vn -0.8334 0.5527 0.0000
vn -0.0015 1.0000 0.0000
vn -0.0015 1.0000 0.0000
vn -0.0015 1.0000 0.0000
vn 0.0000 -0.0026 -1.0000
vn 0.0000 -0.0026 -1.0000
vn 0.0000 -0.0026 -1.0000
vn 0.0026 0.0027 1.0000
vn 0.0026 0.0027 1.0000
vn 0.0026 0.0027 1.0000
vn 0.0071 0.0026 1.0000
vn 0.0071 0.0026 1.0000
vn 0.0071 0.0026 1.0000
vn -0.0024 0.0000 1.0000
vn -0.0024 0.0000 1.0000
vn -0.0024 0.0000 1.0000
vn -0.0024 0.0000 1.0000
vn -0.0024 0.0000 1.0000
vn -0.0024 0.0000 1.0000
vn -0.0024 0.0000 1.0000
vn -0.0024 0.0000 1.0000
vn -0.0024 0.0000 1.0000
vn -0.0024 0.0000 1.0000
vn -0.0024 0.0000 1.0000
vn -0.0024 0.0000 1.0000
vn -0.0024 0.0000 1.0000
vn -0.0024 0.0000 1.0000
vn -0.0024 0.0000 1.0000
vn -0.0003 0.0000 1.0000
vn -0.0003 0.0000 1.0000
vn -0.0003 0.0000 1.0000
vn -0.0003 0.0000 1.0000
vn -0.0003 0.0000 1.0000
vn -0.0003 0.0000 1.0000
vn -0.0004 0.0280 0.9996
vn -0.0004 0.0280 0.9996
vn -0.0004 0.0280 0.9996
vn -0.0006 -0.0008 1.0000
vn -0.0006 -0.0008 1.0000
vn -0.0006 -0.0008 1.0000
vn -0.0003 0.0000 1.0000
vn -0.0003 0.0000 1.0000
vn -0.0003 0.0000 1.0000
vn -0.0003 0.0000 1.0000
vn -0.0003 0.0000 1.0000
vn -0.0003 0.0000 1.0000
vn 0.0005 -0.0280 -0.9996
vn 0.0005 -0.0280 -0.9996
vn 0.0005 -0.0280 -0.9996
vn -0.0006 -0.0008 1.0000
vn -0.0006 -0.0008 1.0000
vn -0.0006 -0.0008 1.0000
vn -1.0000 0.0000 0.0000
vn -1.0000 0.0000 0.0000
vn -1.0000 0.0000 0.0000
vn 0.0014 -1.0000 0.0000
vn 0.0014 -1.0000 0.0000
vn 0.0014 -1.0000 0.0000
vn -1.0000 0.0000 0.0000
vn -1.0000 0.0000 0.0000
vn -1.0000 0.0000 0.0000
vn -0.0014 1.0000 0.0000
vn -0.0014 1.0000 0.0000
vn -0.0014 1.0000 0.0000
vn -0.5747 -0.8184 0.0000
vn -0.5747 -0.8184 0.0000
vn -0.5747 -0.8184 0.0000
vn 0.0032 -1.0000 0.0000
vn 0.0032 -1.0000 0.0000
vn 0.0032 -1.0000 0.0000
vn 1.0000 0.0000 0.0000
vn 1.0000 0.0000 0.0000
vn 1.0000 0.0000 0.0000
vn -0.0028 1.0000 0.0000
vn -0.0028 1.0000 0.0000
vn -0.0028 1.0000 0.0000
vn -1.0000 0.0000 0.0000
vn -1.0000 0.0000 0.0000
vn -1.0000 0.0000 0.0000
vn -0.0019 1.0000 0.0000
vn -0.0019 1.0000 0.0000
vn -0.0019 1.0000 0.0000
vn 1.0000 0.0000 0.0000
vn 1.0000 0.0000 0.0000
vn 1.0000 0.0000 0.0000
vn 0.0019 -1.0000 0.0000
vn 0.0019 -1.0000 0.0000
vn 0.0019 -1.0000 0.0000
vn 1.0000 0.0000 0.0000
vn 1.0000 0.0000 0.0000
vn 1.0000 0.0000 0.0000
vn 0.0016 -1.0000 0.0000
vn 0.0016 -1.0000 0.0000
vn 0.0016 -1.0000 0.0000
vn 0.9954 0.0959 0.0000
vn 0.9954 0.0959 0.0000
vn 0.9954 0.0959 0.0000
vn -0.0016 1.0000 0.0000
vn -0.0016 1.0000 0.0000
vn -0.0016 1.0000 0.0000
vn 0.0024 0.0000 -1.0000
vn 0.0024 0.0000 -1.0000
vn 0.0024 0.0000 -1.0000
vn 0.0025 0.0000 -1.0000
vn 0.0025 0.0000 -1.0000
vn 0.0025 0.0000 -1.0000
vn 0.0025 0.0000 -1.0000
vn 0.0025 0.0000 -1.0000
vn 0.0025 0.0000 -1.0000
vn 0.0025 0.0000 -1.0000
vn 0.0025 0.0000 -1.0000
vn 0.0025 0.0000 -1.0000
vn 1.0000 0.0000 0.0000
vn 1.0000 0.0000 0.0000
vn 1.0000 0.0000 0.0000
vn 0.0115 -0.9999 0.0000
vn 0.0115 -0.9999 0.0000
vn 0.0115 -0.9999 0.0000
vn 1.0000 0.0000 0.0000
vn 1.0000 0.0000 0.0000
vn 1.0000 0.0000 0.0000
vn -0.0115 0.9999 0.0000
vn -0.0115 0.9999 0.0000
vn -0.0115 0.9999 0.0000
vn -1.0000 0.0000 0.0000
vn -1.0000 0.0000 0.0000
vn -1.0000 0.0000 0.0000
vn -1.0000 0.0000 0.0000
vn -1.0000 0.0000 0.0000
vn -1.0000 0.0000 0.0000
vn 0.0115 -0.9999 0.0000
vn 0.0115 -0.9999 0.0000
vn 0.0115 -0.9999 0.0000
vn -0.0115 0.9999 0.0000
vn -0.0115 0.9999 0.0000
vn -0.0115 0.9999 0.0000
vn -1.0000 0.0000 0.0000
vn -1.0000 0.0000 0.0000
vn -1.0000 0.0000 0.0000
vn 0.0115 -0.9999 0.0000
vn 0.0115 -0.9999 0.0000
vn 0.0115 -0.9999 0.0000
vn -1.0000 0.0000 0.0000
vn -1.0000 0.0000 0.0000
vn -1.0000 0.0000 0.0000
vn -0.0115 0.9999 0.0000
vn -0.0115 0.9999 0.0000
vn -0.0115 0.9999 0.0000
vn 1.0000 0.0000 0.0000
vn 1.0000 0.0000 0.0000
vn 1.0000 0.0000 0.0000
vn 0.0115 -0.9999 0.0000
vn 0.0115 -0.9999 0.0000
vn 0.0115 -0.9999 0.0000
vn 1.0000 0.0000 0.0000
vn 1.0000 0.0000 0.0000
vn 1.0000 0.0000 0.0000
vn -0.0115 0.9999 0.0000
vn -0.0115 0.9999 0.0000
vn -0.0115 0.9999 0.0000
vn -0.0000 1.0000 0.0000
vn -0.0000 1.0000 0.0000
vn -0.0000 1.0000 0.0000
vn -0.8321 0.5546 0.0000
vn -0.8321 0.5546 0.0000
vn -0.8321 0.5546 0.0000
vn 1.0000 0.0001 0.0000
vn 1.0000 0.0001 0.0000
vn 1.0000 0.0001 0.0000
vn -0.8332 0.5529 0.0000
vn -0.8332 0.5529 0.0000
vn -0.8332 0.5529 0.0000
vn 0.6432 0.7657 0.0000
vn 0.6432 0.7657 0.0000
vn 0.6432 0.7657 0.0000
vn 1.0000 0.0057 0.0000
vn 1.0000 0.0057 0.0000
vn 1.0000 0.0057 0.0000
vn 0.0015 1.0000 0.0000
vn 0.0015 1.0000 0.0000
vn 0.0015 1.0000 0.0000
vn 0.6819 -0.7315 0.0000
vn 0.6819 -0.7315 0.0000
vn 0.6819 -0.7315 0.0000
vn -1.0000 0.0000 0.0000
vn -1.0000 0.0000 0.0000
vn -1.0000 0.0000 0.0000
vn 0.0026 -1.0000 0.0000
vn 0.0026 -1.0000 0.0000
vn 0.0026 -1.0000 0.0000
vn 0.0000 1.0000 0.0000
vn 0.0000 1.0000 0.0000
vn 0.0000 1.0000 0.0000
vn 0.9999 0.0104 0.0000
vn 0.9999 0.0104 0.0000
vn 0.9999 0.0104 0.0000
vn 0.0000 1.0000 0.0000
vn 0.0000 1.0000 0.0000
vn 0.0000 1.0000 0.0000
vn -0.8486 0.5291 0.0000
vn -0.8486 0.5291 0.0000
vn -0.8486 0.5291 0.0000
vn -0.8334 0.5527 0.0000
vn -0.8334 0.5527 0.0000
vn -0.8334 0.5527 0.0000
vn -0.0015 1.0000 0.0000
vn -0.0015 1.0000 0.0000
vn -0.0015 1.0000 0.0000
vn -0.0000 0.0327 -0.9995
vn -0.0000 0.0327 -0.9995
vn -0.0000 0.0327 -0.9995
vn 0.0041 -0.0026 -1.0000
vn 0.0041 -0.0026 -1.0000
vn 0.0041 -0.0026 -1.0000
vn -0.0038 0.0030 -1.0000
vn -0.0038 0.0030 -1.0000
vn -0.0038 0.0030 -1.0000
vn -0.0029 -0.0084 -1.0000
vn -0.0029 -0.0084 -1.0000
vn -0.0029 -0.0084 -1.0000
vn 0.0000 -0.0038 -1.0000
vn 0.0000 -0.0038 -1.0000
vn 0.0000 -0.0038 -1.0000
vn -0.0017 0.0097 1.0000
vn -0.0017 0.0097 1.0000
vn -0.0017 0.0097 1.0000
vn 0.0075 0.0053 1.0000
vn 0.0075 0.0053 1.0000
vn 0.0075 0.0053 1.0000
vn 0.0000 -0.0030 1.0000
vn 0.0000 -0.0030 1.0000
vn 0.0000 -0.0030 1.0000
vn 0.0000 0.0000 1.0000
vn 0.0000 0.0000 1.0000
vn 0.0000 0.0000 1.0000
vn 0.0000 0.0038 1.0000
vn 0.0000 0.0038 1.0000
vn 0.0000 0.0038 1.0000
vn -0.0000 0.0000 1.0000
vn -0.0000 0.0000 1.0000
vn -0.0000 0.0000 1.0000
vn 0.0000 -0.0300 0.9995
vn 0.0000 -0.0300 0.9995
vn 0.0000 -0.0300 0.9995
vn -0.0013 -0.0327 0.9995
vn -0.0013 -0.0327 0.9995
vn -0.0013 -0.0327 0.9995
vn -0.0006 -0.0025 1.0000
vn -0.0006 -0.0025 1.0000
vn -0.0006 -0.0025 1.0000
vn 0.0000 -0.0115 0.9999
vn 0.0000 -0.0115 0.9999
vn 0.0000 -0.0115 0.9999
vn -0.0003 -0.0316 0.9995
vn -0.0003 -0.0316 0.9995
vn -0.0003 -0.0316 0.9995
vn -0.0123 0.0049 0.9999
vn -0.0123 0.0049 0.9999
vn -0.0123 0.0049 0.9999
vn 0.0053 0.0020 1.0000
vn 0.0053 0.0020 1.0000
vn 0.0053 0.0020 1.0000
vn -0.0117 0.0047 0.9999
vn -0.0117 0.0047 0.9999
vn -0.0117 0.0047 0.9999
usemtl None
s off
f 1/1/1 3/2/2 4/3/3
f 5/4/4 7/5/5 8/6/6
f 9/7/7 11/8/8 12/9/9
f 13/10/10 15/11/11 16/12/12
f 17/13/13 19/14/14 20/15/15
f 21/16/16 23/17/17 24/18/18
f 25/19/19 27/20/20 28/21/21
f 30/22/22 32/23/23 29/24/24
f 34/25/25 36/26/26 33/27/27
f 37/28/28 39/29/29 40/30/30
f 41/31/31 43/32/32 44/33/33
f 46/34/34 48/35/35 45/36/36
f 50/37/37 52/38/38 49/39/39
f 28/40/40 43/41/41 27/42/42
f 21/43/43 40/44/44 24/45/45
f 24/46/46 39/47/47 23/48/48
f 22/49/49 39/50/50 38/51/51
f 36/52/52 51/53/53 35/54/54
f 33/55/55 52/56/56 36/52/57
f 34/57/58 49/58/59 33/59/60
f 34/57/61 51/60/62 50/61/63
f 29/62/64 48/63/65 30/64/66
f 32/65/67 45/66/68 29/67/69
f 26/68/70 41/69/71 25/70/72
f 30/71/73 47/72/74 31/73/75
f 22/49/76 37/74/77 21/75/78
f 25/76/79 44/77/80 28/78/81
f 32/65/82 47/79/83 46/80/84
f 26/68/85 43/81/86 42/82/87
f 53/83/88 55/84/89 56/85/90
f 57/86/91 59/87/92 60/88/93
f 61/89/94 63/90/95 64/91/96
f 65/92/97 67/93/98 68/94/99
f 11/95/100 62/96/101 12/97/102
f 10/98/103 63/99/104 11/100/105
f 15/101/106 66/102/107 16/103/108
f 13/104/109 66/102/110 65/105/111
f 13/106/112 68/107/113 14/108/114
f 9/109/115 64/110/116 10/111/117
f 14/112/118 67/113/119 15/114/120
f 1/115/121 54/116/122 53/117/123
f 5/118/124 60/119/125 6/120/126
f 2/121/127 55/122/128 3/123/129
f 1/124/130 56/125/131 2/126/132
f 5/127/133 58/128/134 57/129/135
f 3/130/136 54/116/137 4/131/138
f 6/132/139 59/133/140 7/134/141
f 7/135/142 58/128/143 8/136/144
f 9/137/145 62/96/146 61/138/147
f 70/139/148 72/140/149 69/141/150
f 74/142/151 76/143/152 73/144/153
f 78/145/154 80/146/155 77/147/156
f 82/148/157 84/149/158 81/150/159
f 85/151/160 87/152/161 88/153/162
f 89/154/163 91/155/164 92/156/165
f 81/157/166 75/158/167 74/159/168
f 93/160/169 95/161/170 96/162/171
f 97/163/172 99/164/173 100/165/174
f 73/166/175 95/161/176 94/167/177
f 90/168/178 100/169/179 97/170/180
f 86/171/181 96/172/182 87/152/183
f 89/154/184 80/146/185 77/147/186
f 69/173/187 99/164/188 98/174/189
f 78/175/190 71/176/191 70/177/192
f 82/178/193 88/153/194 83/179/195
f 71/180/196 91/181/197 100/182/198
f 74/183/199 69/184/200 73/185/201
f 89/186/202 93/187/203 90/188/204
f 1/1/205 2/189/206 3/2/207
f 5/4/208 6/190/209 7/5/210
f 9/7/211 10/191/212 11/8/213
f 13/10/214 14/192/215 15/11/216
f 17/13/217 18/193/218 19/14/219
f 21/16/220 22/194/221 23/17/222
f 25/19/223 26/195/224 27/20/225
f 30/22/226 31/196/227 32/23/228
f 34/25/229 35/197/230 36/26/231
f 37/28/232 38/198/233 39/29/234
f 41/31/235 42/199/236 43/32/237
f 46/34/238 47/200/239 48/35/240
f 50/37/241 51/201/242 52/38/243
f 28/40/244 44/202/245 43/41/246
f 21/43/247 37/203/248 40/44/249
f 24/46/250 40/204/251 39/47/252
f 22/49/253 23/205/254 39/50/255
f 36/52/256 52/56/257 51/53/258
f 33/55/259 49/206/260 52/56/261
f 34/57/262 50/61/263 49/58/264
f 34/57/265 35/207/266 51/60/267
f 29/62/268 45/208/269 48/63/270
f 32/65/271 46/80/272 45/66/273
f 26/68/274 42/82/275 41/69/276
f 30/71/277 48/209/278 47/72/279
f 22/49/280 38/51/281 37/74/282
f 25/76/283 41/210/284 44/77/285
f 32/65/286 31/211/287 47/79/288
f 26/68/289 27/212/290 43/81/291
f 53/83/292 54/213/293 55/84/294
f 57/86/295 58/214/296 59/87/297
f 61/89/298 62/215/299 63/90/300
f 65/92/301 66/216/302 67/93/303
f 11/95/304 63/217/305 62/96/306
f 10/98/307 64/218/308 63/99/309
f 15/101/310 67/219/311 66/102/312
f 13/104/313 16/103/314 66/102/315
f 13/106/316 65/220/317 68/107/318
f 9/109/319 61/221/320 64/110/321
f 14/112/322 68/222/323 67/113/324
f 1/115/325 4/131/326 54/116/327
f 5/118/328 57/223/329 60/119/330
f 2/121/331 56/224/332 55/122/333
f 1/124/334 53/225/335 56/125/336
f 5/127/337 8/136/338 58/128/339
f 3/130/340 55/226/341 54/116/342
f 6/132/343 60/227/344 59/133/345
f 7/135/346 59/228/347 58/128/348
f 9/137/349 12/97/350 62/96/351
f 70/139/352 71/229/353 72/140/354
f 74/142/355 75/230/356 76/143/357
f 78/145/358 79/231/359 80/146/360
f 82/148/361 83/232/362 84/149/363
f 85/151/364 86/171/365 87/152/366
f 89/154/367 90/168/368 91/155/369
f 81/157/370 84/233/371 75/158/372
f 93/160/373 94/167/374 95/161/375
f 97/163/376 98/174/377 99/164/378
f 73/166/379 76/234/380 95/161/381
f 90/168/382 91/155/383 100/169/384
f 86/171/385 93/235/386 96/172/387
f 89/154/388 92/156/389 80/146/390
f 69/173/391 72/236/392 99/164/393
f 78/175/394 79/237/395 71/176/396
f 82/178/397 85/151/398 88/153/399
f 79/238/400 80/239/401 92/240/402
f 92/240/403 91/181/404 79/238/405
f 100/182/406 99/241/407 71/180/408
f 71/180/409 79/238/410 91/181/411
f 99/241/412 72/242/413 71/180/414
f 81/243/415 82/244/416 78/245/417
f 81/243/418 78/245/419 70/246/420
f 97/247/421 73/185/422 98/248/423
f 74/183/424 81/243/425 70/246/426
f 69/184/427 98/248/428 73/185/429
f 74/183/430 70/246/431 69/184/432
f 89/186/433 77/249/434 85/250/435
f 77/249/436 78/245/437 82/244/438
f 73/185/439 97/247/440 94/251/441
f 94/251/442 97/247/443 90/188/444
f 77/249/445 82/244/446 85/250/447
f 89/186/448 85/250/449 86/252/450
f 93/187/451 94/251/452 90/188/453
f 89/186/454 86/252/455 93/187/456
l 101 102
